HIERARCHY
ROOT hip
{
  OFFSET 0 0 0
  CHANNELS 6 Xposition Yposition Zposition Zrotation Yrotation Xrotation
  JOINT abdomen
  {
    OFFSET 0 20.6881 -0.73152
    CHANNELS 3 Zrotation Xrotation Yrotation
    JOINT chest
    {
      OFFSET 0 11.7043 -0.48768
      CHANNELS 3 Zrotation Xrotation Yrotation
      JOINT neck
      {
        OFFSET 0 22.1894 -2.19456
        CHANNELS 3 Zrotation Xrotation Yrotation
        JOINT head
        {
          OFFSET -0.24384 7.07133 1.2192
          CHANNELS 3 Zrotation Xrotation Yrotation
          JOINT leftEye
          {
            OFFSET 4.14528 8.04674 8.04672
            CHANNELS 3 Zrotation Xrotation Yrotation
            End Site
            {
              OFFSET 1 0 0
            }
          }
          JOINT rightEye
          {
            OFFSET -3.6576 8.04674 8.04672
            CHANNELS 3 Zrotation Xrotation Yrotation
            End Site
            {
              OFFSET 1 0 0
            }
          }
        }
      }
      JOINT rCollar
      {
        OFFSET -2.68224 19.2634 -4.8768
        CHANNELS 3 Zrotation Xrotation Yrotation
        JOINT rShldr
        {
          OFFSET -8.77824 -1.95073 1.46304
          CHANNELS 3 Zrotation Xrotation Yrotation
          JOINT rForeArm
          {
            OFFSET -28.1742 -1.7115 0.48768
            CHANNELS 3 Zrotation Xrotation Yrotation
            JOINT rHand
            {
              OFFSET -22.5879 0.773209 7.07136
              CHANNELS 3 Zrotation Xrotation Yrotation
              JOINT rThumb1
              {
                OFFSET -1.2192 -0.487915 3.41376
                CHANNELS 3 Zrotation Xrotation Yrotation
                JOINT rThumb2
                {
                  OFFSET -3.37035 -0.52449 3.41376
                  CHANNELS 3 Zrotation Xrotation Yrotation
                  End Site
                  {
                    OFFSET -1.78271 -1.18214 1.43049
                  }
                }
              }
              JOINT rIndex1
              {
                OFFSET -7.75947 0.938293 5.60832
                CHANNELS 3 Zrotation Xrotation Yrotation
                JOINT rIndex2
                {
                  OFFSET -2.54057 -0.884171 1.56538
                  CHANNELS 3 Zrotation Xrotation Yrotation
                  End Site
                  {
                    OFFSET -1.62519 -0.234802 1.16502
                  }
                }
              }
              JOINT rMid1
              {
                OFFSET -8.24714 1.18213 3.41376
                CHANNELS 3 Zrotation Xrotation Yrotation
                JOINT rMid2
                {
                  OFFSET -3.10165 -0.590103 1.0647
                  CHANNELS 3 Zrotation Xrotation Yrotation
                  End Site
                  {
                    OFFSET -2.48547 -0.328903 0.83742
                  }
                }
              }
              JOINT rRing1
              {
                OFFSET -8.82822 0.546677 1.51678
                CHANNELS 3 Zrotation Xrotation Yrotation
                JOINT rRing2
                {
                  OFFSET -2.60934 -0.819778 -0.0198488
                  CHANNELS 3 Zrotation Xrotation Yrotation
                  End Site
                  {
                    OFFSET -2.33842 -0.294052 0.168128
                  }
                }
              }
              JOINT rPinky1
              {
                OFFSET -8.27202 -0.0477905 -0.4584
                CHANNELS 3 Zrotation Xrotation Yrotation
                JOINT rPinky2
                {
                  OFFSET -1.82734 -0.647385 -0.700984
                  CHANNELS 3 Zrotation Xrotation Yrotation
                  End Site
                  {
                    OFFSET -1.69225 -0.51767 -0.607171
                  }
                }
              }
            }
          }
        }
      }
      JOINT lCollar
      {
        OFFSET 2.68224 19.2634 -4.8768
        CHANNELS 3 Zrotation Xrotation Yrotation
        JOINT lShldr
        {
          OFFSET 8.77824 -1.95073 1.46304
          CHANNELS 3 Zrotation Xrotation Yrotation
          JOINT lForeArm
          {
            OFFSET 28.1742 -1.7115 0.48768
            CHANNELS 3 Zrotation Xrotation Yrotation
            JOINT lHand
            {
              OFFSET 22.5879 0.773209 7.07136
              CHANNELS 3 Zrotation Xrotation Yrotation
              JOINT lThumb1
              {
                OFFSET 1.2192 -0.487915 3.41376
                CHANNELS 3 Zrotation Xrotation Yrotation
                JOINT lThumb2
                {
                  OFFSET 3.37035 -0.52449 3.41376
                  CHANNELS 3 Zrotation Xrotation Yrotation
                  End Site
                  {
                    OFFSET 1.78271 -1.18214 1.43049
                  }
                }
              }
              JOINT lIndex1
              {
                OFFSET 7.75947 0.938293 5.60832
                CHANNELS 3 Zrotation Xrotation Yrotation
                JOINT lIndex2
                {
                  OFFSET 2.54057 -0.884171 1.56538
                  CHANNELS 3 Zrotation Xrotation Yrotation
                  End Site
                  {
                    OFFSET 1.62519 -0.234802 1.16502
                  }
                }
              }
              JOINT lMid1
              {
                OFFSET 8.24714 1.18213 3.41376
                CHANNELS 3 Zrotation Xrotation Yrotation
                JOINT lMid2
                {
                  OFFSET 3.10165 -0.590103 1.0647
                  CHANNELS 3 Zrotation Xrotation Yrotation
                  End Site
                  {
                    OFFSET 2.48547 -0.328903 0.83742
                  }
                }
              }
              JOINT lRing1
              {
                OFFSET 8.82822 0.546677 1.51678
                CHANNELS 3 Zrotation Xrotation Yrotation
                JOINT lRing2
                {
                  OFFSET 2.60934 -0.819778 -0.0198488
                  CHANNELS 3 Zrotation Xrotation Yrotation
                  End Site
                  {
                    OFFSET 2.33842 -0.294052 0.168128
                  }
                }
              }
              JOINT lPinky1
              {
                OFFSET 8.27202 -0.0477905 -0.4584
                CHANNELS 3 Zrotation Xrotation Yrotation
                JOINT lPinky2
                {
                  OFFSET 1.82734 -0.647385 -0.700984
                  CHANNELS 3 Zrotation Xrotation Yrotation
                  End Site
                  {
                    OFFSET 1.69225 -0.51767 -0.607171
                  }
                }
              }
            }
          }
        }
      }
    }
  }
  JOINT rButtock
  {
    OFFSET -8.77824 4.35084 1.2192
    CHANNELS 3 Zrotation Xrotation Yrotation
    JOINT rThigh
    {
      OFFSET 0 -1.70687 -2.19456
      CHANNELS 3 Zrotation Xrotation Yrotation
      JOINT rShin
      {
        OFFSET 0 -36.8199 0.73152
        CHANNELS 3 Zrotation Xrotation Yrotation
        JOINT rFoot
        {
          OFFSET 0.73152 -45.1104 -5.12064
          CHANNELS 3 Zrotation Xrotation Yrotation
          End Site
          {
            OFFSET -1.1221 -3.69964 12.103
          }
        }
      }
    }
  }
  JOINT lButtock
  {
    OFFSET 8.77824 4.35084 1.2192
    CHANNELS 3 Zrotation Xrotation Yrotation
    JOINT lThigh
    {
      OFFSET 0 -1.70687 -2.19456
      CHANNELS 3 Zrotation Xrotation Yrotation
      JOINT lShin
      {
        OFFSET 0 -36.8199 0.73152
        CHANNELS 3 Zrotation Xrotation Yrotation
        JOINT lFoot
        {
          OFFSET -0.73152 -45.1104 -5.12064
          CHANNELS 3 Zrotation Xrotation Yrotation
          End Site
          {
            OFFSET 1.1221 -3.69964 12.103
          }
        }
      }
    }
  }
}
MOTION
Frames:	4
Frame Time:	0.00833333
-7.05521 85.1968 -12.805 0.0 0.0 0.0 0.58397 -0.00303824 0.0166886 0.161171 -0.0046852 0.0279254 -2.4679e-15 7.95139e-16 -6.21202e-17 -7.29602e-15 9.54166e-15 -1.97232e-16 -0.0 0.0 0.0 -0.0 0.0 0.0 -1.24371e-15 1.06769e-17 4.96962e-17 -2.38979e-14 4.53478e-16 0.0 -4.39016e-13 1.44119e-13 -3.49861e-14 -5.08294e-12 -7.73769e-14 -1.20861e-13 -1.19846e-11 1.42291e-13 -3.11694e-13 -2.07014e-11 2.48083e-13 -5.43875e-13 -1.19811e-11 1.42727e-13 -3.21236e-13 7.73091 5.47488 0.417314 -1.19849e-11 1.41833e-13 -3.08514e-13 2.90554 0.965183 0.102902 -1.19826e-11 1.42429e-13 -3.1408e-13 10.2786 0.731801 0.0259123 -1.19893e-11 1.4551e-13 -3.08514e-13 2.22167 -0.733487 -0.20892 -1.34057e-15 1.06769e-17 -9.93923e-17 -2.74108e-14 6.21202e-17 -1.59028e-15 -4.49204e-13 -1.24439e-13 1.59028e-14 -5.08256e-12 1.80347e-13 -1.46306e-13 -1.19946e-11 1.2418e-13 -3.08514e-13 -2.07094e-11 2.09917e-13 -5.39104e-13 -1.19978e-11 1.26029e-13 -2.95792e-13 -7.73091 5.47488 -0.417314 -1.1995e-11 1.23942e-13 -3.14875e-13 -2.90554 0.965183 -0.102902 -1.20046e-11 1.24439e-13 -3.1249e-13 -10.2786 0.731801 -0.0259123 -1.19919e-11 1.26825e-13 -3.18055e-13 -2.22167 -0.733487 0.20892 -2.03217e-16 0.0 -3.88251e-19 0.939977 -4.56522 -0.0787561 -0.00191291 2.71743 -0.00754133 -0.501026 1.84802 0.0947582 2.03217e-16 0.0 3.88251e-19 -0.0507721 -2.31868 0.0217187 0.00816023 -1.35176 0.0697852 0.492794 3.67058 -0.130806
-7.07846 84.0305 -13.4134 1.7572 -8.3227 1.589 -0.885221 1.08558 -0.30651 0.518042 -0.332419 -0.0701296 -2.89197 2.08951 -1.70073 7.27239 -5.52469 -1.74146 -0.0 0.0 0.0 -0.0 0.0 0.0 -6.69804e-16 -6.75011e-15 7.96381e-15 19.9873 6.0631 -1.13817 -4.23558 -1.9276 6.61225 0.0425558 4.58454 0.636922 -1.03329e-11 -4.95256e-11 1.7801e-10 -1.48416e-11 -8.72571e-11 3.08142e-10 -1.03275e-11 -4.95273e-11 1.78001e-10 7.73091 5.47488 0.417314 -1.03326e-11 -4.95287e-11 1.7801e-10 2.90554 0.965183 0.102902 -1.03287e-11 -4.95283e-11 1.78006e-10 10.2786 0.731801 0.0259123 -1.03375e-11 -4.95252e-11 1.7801e-10 2.22167 -0.733487 -0.20892 -7.26774e-16 -6.75148e-15 7.80346e-15 -21.456 3.48976 -0.274091 3.17538 -1.2831 -5.11983 -0.0174766 2.93862 -0.411048 -3.36024e-11 -9.93465e-11 -9.60463e-11 -5.92365e-11 -1.72469e-10 -1.65942e-10 -3.36056e-11 -9.93447e-11 -9.60325e-11 -7.73091 5.47488 -0.417314 -3.3602e-11 -9.93467e-11 -9.60501e-11 -2.90554 0.965183 -0.102902 -3.36116e-11 -9.93462e-11 -9.60494e-11 -10.2786 0.731801 -0.0259123 -3.35989e-11 -9.93433e-11 -9.60561e-11 -2.22167 -0.733487 0.20892 -2.03217e-16 0.0 -3.88251e-19 0.525615 -7.04127 5.17637 0.0180645 9.55032 0.133022 -1.07738 -2.9581 -5.06791 2.03217e-16 0.0 3.88251e-19 0.229718 -4.38548 -1.45973 -0.022022 5.14985 -0.0894279 1.14041 -1.8765 5.89097
-7.0608 84.0343 -13.4057 1.8195 -8.2424 1.5593 -2.42503 2.23431 -0.649594 0.894592 -0.678933 -0.17404 -5.81518 4.29474 -3.50802 14.5957 -11.3452 -3.64054 -0.0 0.0 0.0 -0.0 0.0 0.0 -9.11881e-16 -1.47037e-14 2.2736e-14 41.3951 12.4794 -2.38712 -8.23683 -3.88256 13.6324 -0.0245953 9.40205 1.32016 -4.13728e-11 -7.89978e-11 3.91973e-10 -6.48636e-11 -1.40293e-10 6.79016e-10 -4.13652e-11 -7.90019e-11 3.91965e-10 7.73091 5.47488 0.417314 -4.13717e-11 -7.90039e-11 3.9197e-10 2.90554 0.965183 0.102902 -4.13661e-11 -7.90037e-11 3.91968e-10 10.2786 0.731801 0.0259123 -4.13772e-11 -7.90006e-11 3.9197e-10 2.22167 -0.733487 -0.20892 -9.23815e-16 -1.47066e-14 2.25652e-14 -44.1045 7.16472 -0.570002 6.27269 -2.59852 -10.5225 0.010241 6.06545 -0.85212 -8.19102e-11 -2.51387e-10 -1.91207e-10 -1.43942e-10 -4.36028e-10 -3.30108e-10 -8.19133e-11 -2.51385e-10 -1.91192e-10 -7.73091 5.47488 -0.417314 -8.19089e-11 -2.51387e-10 -1.91208e-10 -2.90554 0.965183 -0.102902 -8.19186e-11 -2.51387e-10 -1.9121e-10 -10.2786 0.731801 -0.0259123 -8.1906e-11 -2.51383e-10 -1.91218e-10 -2.22167 -0.733487 0.20892 -2.03217e-16 0.0 -3.88251e-19 0.590079 -9.54418 10.8089 0.00118714 16.7722 0.290089 -2.63002 -7.92554 -10.6114 2.03217e-16 0.0 3.88251e-19 0.412692 -6.55959 -3.03065 -0.0139749 12.0249 -0.262797 3.09319 -7.58127 12.3663
-7.02598 84.0364 -13.3991 1.9501 -8.1303 1.5338 -3.78671 3.26242 -0.95429 1.22842 -0.987878 -0.266276 -8.30242 6.24639 -5.12934 20.7744 -16.5115 -5.42441 -0.0 0.0 0.0 -0.0 0.0 0.0 4.78009e-16 -2.02717e-14 2.3792e-14 60.7164 18.1598 -3.57363 -11.3965 -5.47537 19.9202 -0.185726 13.7467 1.96084 -7.02967e-12 -1.48861e-10 5.34652e-10 -3.12192e-12 -2.62267e-10 9.25513e-10 -7.0203e-12 -1.48867e-10 5.34646e-10 7.73091 5.47488 0.417314 -7.02801e-12 -1.4887e-10 5.34647e-10 2.90554 0.965183 0.102902 -7.02076e-12 -1.4887e-10 5.34647e-10 10.2786 0.731801 0.0259123 -7.03386e-12 -1.48867e-10 5.34647e-10 2.22167 -0.733487 -0.20892 5.00829e-16 -2.02758e-14 2.36092e-14 -64.2665 10.4683 -0.834641 8.84615 -3.72654 -15.389 0.0753394 8.81405 -1.24624 -7.6818e-11 -2.98288e-10 -2.87522e-10 -1.36291e-10 -5.17827e-10 -4.96747e-10 -7.6821e-11 -2.98286e-10 -2.87506e-10 -7.73091 5.47488 -0.417314 -7.68159e-11 -2.98288e-10 -2.87521e-10 -2.90554 0.965183 -0.102902 -7.68257e-11 -2.98288e-10 -2.87523e-10 -10.2786 0.731801 -0.0259123 -7.6813e-11 -2.98284e-10 -2.87532e-10 -2.22167 -0.733487 0.20892 -2.03217e-16 0.0 -3.88251e-19 1.06283 -11.6295 15.9035 -0.0503162 23.2156 0.444602 -4.84218 -12.1471 -15.7339 2.03217e-16 0.0 3.88251e-19 0.467189 -8.49794 -4.45881 0.0301813 18.1526 -0.428036 5.936 -12.3593 18.3647
